# xmcd
#
# Track frame offsets:
#	150
#	13376
#	45818
#	81141
#	97562
#	106427
#	126486
#	152011
#	166835
#	179201
#	202637
#	210744
#	222929
#	241132
#	255441
#
# Disc length: 3577 seconds
# Revision: 0
# Processed by: cddbd v1.5.2PL0 Copyright (c) Steve Scherf et al.
# Submitted via: dBpowerAMP V12.0
#
DISCID=bd0df70f
DTITLE=Various Artist - Brigitte Klassik zum Genieﬂen: Yo-Yo Ma
DYEAR=1900
DGENRE=Classical
TTITLE0=Yo-Yo Ma - The Swan (From "Carnival of the Animals, R. 125")
TTITLE1=Yo-Yo Ma - Seven Years in Tibet
TTITLE2=Yo-Yo Ma - Piano Quartet in E-Flat Major, Op.16 II. Andante cantabile
TTITLE3=Yo-Yo Ma;Patricia Zander - 3 Old Viennese Dances: No. 2, Liebesleid (Transcribed for Cello and Piano)
TTITLE4=Yo-Yo Ma - Songs My Mother Taught Me (from "Gypsy Songs", Op. 55, No. 4)
TTITLE5=Yo-Yo Ma - Cello Concerto No. 2 in D Major, Hob. VIIb:2 III. Allegro
TTITLE6=Yo-Yo Ma - Cello Concerto in D Major, G. 476 III. Allegro piacere
TTITLE7=Yo-Yo Ma - The Mission Gabriel's Oboe
TTITLE8=Yo-Yo Ma - Ave Maria
TTITLE9=Yo-Yo Ma - Sayuri's Theme and End Credits
TTITLE10=Yo-Yo Ma - The Four Seasons - Violin Concerto in F Minor, RV 297, "Winter": II. Largo
TTITLE11=Yo-Yo Ma - Apres un reve, Op. 7, No. 1
TTITLE12=Yo-Yo Ma - Sergio Leone Suite Ecstasy of Gold (From "The Good, the Bad, and the Ugly")
TTITLE13=Yo-Yo Ma - The Eternal Vow (From "Crouching Tiger, Hidden Dragon")
TTITLE14=o-Yo Ma - La fida ninfa, RV 714: Cosi sugl' occhi miei (Transcribed for Cello and Orchestra)
EXTD=
EXTT0=
EXTT1=
EXTT2=
EXTT3=
EXTT4=
EXTT5=
EXTT6=
EXTT7=
EXTT8=
EXTT9=
EXTT10=
EXTT11=
EXTT12=
EXTT13=
EXTT14=
PLAYORDER=
